Land_normalized_precision_landing09_filtered_grf
version=1
nRows=15
nColumns=37
inDegrees=yes
endheader
time		1_ground_force_vx		1_ground_force_vy		1_ground_force_vz		1_ground_force_px		1_ground_force_py		1_ground_force_pz		1_ground_torque_x		1_ground_torque_y		1_ground_torque_z		2_ground_force_vx		2_ground_force_vy		2_ground_force_vz		2_ground_force_px		2_ground_force_py		2_ground_force_pz		2_ground_torque_x		2_ground_torque_y		2_ground_torque_z		3_ground_force_vx		3_ground_force_vy		3_ground_force_vz		3_ground_force_px		3_ground_force_py		3_ground_force_pz		3_ground_torque_x		3_ground_torque_y		3_ground_torque_z		4_ground_force_vx		4_ground_force_vy		4_ground_force_vz		4_ground_force_px		4_ground_force_py		4_ground_force_pz		4_ground_torque_x		4_ground_torque_y		4_ground_torque_z		
1.398667		-17.634410		949.174379		287.129759		0.073581		0.000000		0.293999		-0.365101		19.653848		5.945413		49.895836		907.307219		245.970791		-0.166723		0.000000		0.295605		2.131252		38.754723		10.506403		0.268782		-0.166784		-0.366990		0.381084		1.275711		1.879778		0.019302		0.017544		0.032748		-1.695132		-0.772767		-0.331312		-0.351407		1.268556		1.870026		0.000466		-0.013426		-0.013286		
1.401369		-23.763923		928.807885		276.613313		0.073931		0.000000		0.293127		-0.469768		18.362495		5.468662		49.709491		898.413450		240.781279		-0.165906		0.000000		0.295066		2.115686		38.237399		10.247900		0.147635		-0.180042		-0.426915		0.381112		1.275706		1.879745		0.016446		0.012393		0.034412		-1.670946		-0.698457		-0.344140		-0.351399		1.268546		1.869986		-0.000695		-0.016205		-0.013913		
1.404071		-30.322498		910.368335		266.820333		0.074438		0.000000		0.292415		-0.571063		17.145722		5.025265		51.547421		889.651985		235.974286		-0.165421		0.000000		0.294681		2.194359		37.872219		10.045354		0.092319		-0.167427		-0.498331		0.381139		1.275706		1.879711		0.013943		0.005797		0.035866		-1.603710		-0.591586		-0.346319		-0.351395		1.268536		1.869946		-0.001161		-0.018490		-0.015001		
1.406773		-36.860525		894.285880		257.893023		0.075162		0.000000		0.292108		-0.663575		16.100324		4.643018		54.749605		881.614296		231.246178		-0.165252		0.000000		0.294528		2.332497		37.559416		9.851782		0.115718		-0.115110		-0.566751		0.381160		1.275710		1.879673		0.012646		-0.000599		0.037044		-1.510512		-0.471733		-0.330742		-0.351392		1.268528		1.869909		-0.001191		-0.020285		-0.016472		
1.409475		-43.003723		880.628453		249.972078		0.076090		0.000000		0.292266		-0.744185		15.239534		4.325844		57.991734		874.410066		226.038973		-0.165228		0.000000		0.294601		2.462960		37.136995		9.600084		0.213349		-0.021625		-0.621733		0.381173		1.275716		1.879627		0.012784		-0.005268		0.037637		-1.412088		-0.362570		-0.289172		-0.351387		1.268523		1.869873		-0.000947		-0.021831		-0.017967		
1.412177		-48.438231		869.160023		243.067458		0.077142		0.000000		0.292770		-0.810000		14.534790		4.064784		60.136050		867.849907		219.823692		-0.165150		0.000000		0.294858		2.526999		36.468374		9.237352		0.361524		0.103469		-0.653988		0.381178		1.275722		1.879575		0.013984		-0.007125		0.037284		-1.328643		-0.286641		-0.214863		-0.351378		1.268519		1.869839		-0.000377		-0.023450		-0.018933		
1.414879		-52.948745		859.359911		236.917470		0.078195		0.000000		0.293389		-0.859409		13.948444		3.845465		60.846098		861.634455		212.519252		-0.164924		0.000000		0.295246		2.509186		35.532336		8.763967		0.520074		0.241715		-0.653391		0.381179		1.275729		1.879517		0.015451		-0.005811		0.035826		-1.275056		-0.258106		-0.108500		-0.351365		1.268514		1.869803		0.000707		-0.025385		-0.018873		
1.417581		-56.415920		850.690848		231.109141		0.079128		0.000000		0.293897		-0.892680		13.460734		3.656914		60.597243		855.519805		204.669694		-0.164598		0.000000		0.295703		2.439519		34.441445		8.239605		0.647281		0.371561		-0.609002		0.381177		1.275735		1.879456		0.016348		-0.001669		0.033391		-1.256897		-0.279229		0.019698		-0.351352		1.268509		1.869763		0.002449		-0.027675		-0.017596		
1.420283		-58.809632		842.754165		225.300026		0.079856		0.000000		0.294162		-0.911837		13.066893		3.493283		60.266944		849.349958		197.335001		-0.164314		0.000000		0.296157		2.370166		33.403096		7.760795		0.713434		0.472927		-0.514231		0.381177		1.275742		1.879397		0.016112		0.004241		0.030386		-1.268112		-0.338755		0.149797		-0.351340		1.268502		1.869718		0.004762		-0.030119		-0.015397		
1.422985		-60.142922		835.398639		219.439127		0.080360		0.000000		0.294178		-0.918487		12.757988		3.351217		60.530847		843.052183		191.622621		-0.164206		0.000000		0.296527		2.341964		32.618056		7.413964		0.711234		0.531850		-0.372519		0.381182		1.275747		1.879343		0.014662		0.010410		0.027394		-1.293720		-0.415172		0.257436		-0.351334		1.268493		1.869672		0.007280		-0.032356		-0.012985		
1.425687		-60.389460		828.735628		213.786657		0.080667		0.000000		0.294039		-0.912458		12.521822		3.230224		61.491661		836.590747		188.217186		-0.164327		0.000000		0.296751		2.366027		32.189664		7.242069		0.654198		0.540725		-0.196392		0.381191		1.275750		1.879295		0.012329		0.015334		0.025032		-1.317412		-0.483761		0.320979		-0.351335		1.268486		1.869628		0.009479		-0.033956		-0.011207		
1.428389		-59.541125		823.006764		208.736313		0.080836		0.000000		0.293876		-0.893991		12.357181		3.134110		62.657749		829.910062		186.969390		-0.164615		0.000000		0.296812		2.420893		32.065015		7.223888		0.571433		0.500123		-0.004304		0.381207		1.275750		1.879252		0.009693		0.018015		0.023778		-1.328942		-0.523954		0.330958		-0.351344		1.268482		1.869589		0.010898		-0.034594		-0.010721		
1.431091		-57.615465		818.480516		204.606349		0.080922		0.000000		0.293800		-0.865675		12.297727		3.074223		63.299654		822.889451		187.044437		-0.164938		0.000000		0.296744		2.467792		32.081047		7.292090		0.494303		0.415794		0.185958		0.381227		1.275745		1.879212		0.007305		0.018132		0.023866		-1.327463		-0.524720		0.291732		-0.351356		1.268482		1.869558		0.011283		-0.034165		-0.011804		
1.433793		-54.718758		815.302577		201.521797		0.080962		0.000000		0.293881		-0.831440		12.388459		3.062103		62.865979		815.382949		187.274096		-0.165150		0.000000		0.296610		2.470564		32.043672		7.359674		0.448148		0.299545		0.358152		0.381247		1.275732		1.879171		0.005526		0.016008		0.025192		-1.319184		-0.488135		0.220137		-0.351370		1.268488		1.869536		0.010644		-0.032912		-0.014255		
1.436495		-51.039629		813.400160		199.420882		0.080979		0.000000		0.294139		-0.792675		12.632583		3.097123		61.281421		807.332315		186.711919		-0.165170		0.000000		0.296486		2.415543		31.822797		7.359666		0.445836		0.168681		0.497108		0.381267		1.275714		1.879132		0.004444		0.012388		0.027300		-1.311185		-0.428781		0.139238		-0.351383		1.268498		1.869525		0.009200		-0.031378		-0.017487		
